PathFileType	4	(X/Y/Z)	D:\TRACE\spotREDO_2-26-24\spot_Both_Motion_1_7-platform.trc
DataRate	CameraRate	NumFrames	NumMarkers	Units	OrigDataRate	OrigDataStartFrame	OrigNumFrames
100.00	100.00	      30	5	mm	100.00	4376	      7000
Frame#	Time	Left_Front			Right_Front			Left_Aft			Right_Aft			Post			
		X1	Y1	Z1	X2	Y2	Z2	X3	Y3	Z3	X4	Y4	Z4	X5	Y5	Z5	

4376	43.750	-661.26068	21.63389	-568.87903	753.82556	27.02820	-484.03937	-732.31830	-22.38565	649.37262	837.97253	-14.37452	653.48065	47.98705	665.64343	-947.73615	
4377	43.760	-661.75134	21.65440	-568.77002	752.86072	27.12221	-483.92078	-732.92517	-22.42969	649.35962	837.12366	-14.38482	653.38318	46.99261	665.72888	-947.22571	
4378	43.770	-662.38171	21.60245	-568.65918	752.20160	27.17752	-483.89114	-733.57782	-22.39344	649.36951	836.39825	-14.54308	653.23224	46.49245	665.90826	-947.13910	
4379	43.780	-663.36597	21.65039	-568.58545	751.73108	27.19732	-483.92276	-734.38239	-22.48446	649.44830	835.72412	-14.70067	653.17072	45.93556	665.99701	-947.07959	
4380	43.790	-663.65070	21.59258	-568.69019	750.92383	27.32690	-484.09225	-735.17188	-22.64648	649.45660	835.32245	-14.90098	653.21405	45.16813	666.06781	-947.26038	
4381	43.800	-664.53217	21.88896	-568.70398	750.37494	27.45105	-483.94608	-735.61926	-22.68754	649.61932	834.72479	-14.85587	653.48468	44.47460	666.21960	-947.69446	
4382	43.810	-665.31281	21.97138	-568.69879	749.65802	27.57730	-484.01279	-736.30444	-22.81018	649.53979	833.98950	-14.96728	653.50262	44.04538	666.28229	-948.01050	
4383	43.820	-665.75464	21.88394	-568.61572	748.67804	27.74448	-484.02655	-737.20148	-23.03545	649.54889	833.10181	-15.02558	653.35266	42.99339	666.26440	-948.53125	
4384	43.830	-666.79169	21.91623	-568.42688	748.04871	27.47173	-483.88095	-737.70038	-22.86971	649.65973	832.29156	-15.09706	653.13171	42.41580	666.11603	-948.55316	
4385	43.840	-667.29993	21.87192	-568.48553	747.45685	27.31054	-483.83908	-738.55060	-22.86179	649.56006	831.61316	-15.22176	653.15851	41.40281	666.23242	-948.53961	
4386	43.850	-668.25366	21.97824	-568.54901	746.71710	27.34726	-483.99673	-739.34241	-22.95497	649.35516	830.86316	-15.08372	653.16479	40.88651	666.24652	-948.37823	
4387	43.860	-668.94720	21.94292	-568.54156	745.76892	27.30075	-483.95828	-740.12042	-22.77486	649.42206	830.05597	-15.03621	653.23694	40.32297	666.18524	-948.33301	
4388	43.870	-669.76001	22.01895	-568.65656	745.01520	27.54817	-483.86240	-741.00494	-22.71921	649.34137	829.31195	-14.95603	653.30615	39.32848	666.19904	-947.89795	
4389	43.880	-670.46393	21.98666	-568.54974	744.46899	27.48584	-483.85223	-741.70135	-22.48962	649.28979	828.51227	-15.05645	653.33392	38.48705	666.32623	-947.54132	
4390	43.890	-671.24365	21.83671	-568.71820	743.35315	27.73222	-483.90540	-742.53827	-22.65503	649.37219	827.81268	-15.00658	653.44135	37.54984	666.25311	-947.55817	
4391	43.900	-672.12311	21.90732	-568.62567	742.67194	27.43451	-483.84119	-743.41119	-22.75220	649.47528	826.91046	-14.96659	653.57245	36.79987	666.21863	-947.37360	
4392	43.910	-672.88953	22.06991	-568.65747	742.11591	27.26437	-483.82861	-744.09277	-22.77584	649.61420	826.08215	-15.01062	653.58136	36.16762	666.22192	-947.10431	
4393	43.920	-673.79645	22.06417	-568.69299	741.04358	27.33006	-483.84393	-744.73553	-22.82874	649.66205	825.19666	-14.91322	653.70325	35.26460	666.35010	-947.28235	
4394	43.930	-674.62610	22.07672	-568.64966	740.13965	27.48944	-483.78912	-745.68921	-23.07876	649.60217	824.60712	-15.10612	653.71252	34.27332	666.51288	-947.44733	
4395	43.940	-675.54431	21.98022	-568.67480	739.37988	27.51674	-483.84491	-746.52020	-23.08956	649.65216	823.51196	-15.32076	653.47510	33.46586	666.68628	-947.73737	
4396	43.950	-676.23889	22.13201	-568.54639	738.50964	27.47456	-483.74222	-747.32227	-23.05883	649.60535	822.70190	-15.37552	653.26251	33.00676	666.71118	-947.85431	
4397	43.960	-677.09473	22.02600	-568.70544	737.92957	27.53681	-483.72388	-748.27472	-23.13438	649.45355	821.77606	-15.26251	653.40228	31.87799	666.77826	-947.98151	
4398	43.970	-677.90649	22.03433	-568.62939	736.92621	27.75965	-483.85858	-749.09686	-22.93649	649.41473	821.35028	-15.25826	653.45776	30.89298	666.72974	-947.88776	
4399	43.980	-678.78656	21.96341	-568.58203	735.76105	27.65540	-483.93030	-749.91077	-22.84623	649.49963	820.26440	-15.24334	653.40704	30.08869	666.42902	-947.68176	
4400	43.990	-679.76556	21.90699	-568.57648	735.03418	27.40616	-483.87500	-750.98248	-22.90151	649.52020	819.31512	-15.23089	653.24152	29.07607	666.42102	-947.67786	
4401	44.000	-680.51666	21.82100	-568.58289	734.09186	27.29004	-484.02924	-751.74689	-22.87655	649.51550	818.36145	-15.27441	653.17963	28.34800	666.33759	-947.51874	
4402	44.010	-681.55835	21.74432	-568.47119	733.06683	27.40837	-484.04404	-752.79041	-22.61196	649.53253	817.73987	-15.15200	653.11511	27.54931	666.17755	-947.32568	
4403	44.020	-682.40051	21.61809	-568.60138	732.53198	27.18963	-483.91779	-753.61487	-22.55135	649.55396	816.64398	-14.88831	653.28772	26.69024	665.96271	-947.37994	
4404	44.030	-683.51495	22.15461	-568.88477	731.92474	26.88892	-483.65665	-754.62207	-22.66227	649.33429	815.83386	-14.94398	653.32452	25.59788	665.72852	-947.49255	
4405	44.040	-684.21149	22.07409	-568.71753	730.62823	26.89555	-483.87955	-755.11670	-22.36493	649.34503	814.89429	-14.77816	653.23859	24.61873	665.58978	-948.02551	
